<?xml version="1.0" encoding="utf-8"?>
<!-- Generator: Adobe Illustrator 16.0.4, SVG Export Plug-In . SVG Version: 6.00 Build 0)  -->
<!DOCTYPE svg PUBLIC "-//W3C//DTD SVG 1.1//EN" "http://www.w3.org/Graphics/SVG/1.1/DTD/svg11.dtd">
<svg version="1.1" id="Ebene_1" xmlns="http://www.w3.org/2000/svg" xmlns:xlink="http://www.w3.org/1999/xlink" x="0px" y="0px"
	 width="188.953px" height="56.693px" viewBox="0 0 188.953 56.693" enable-background="new 0 0 188.953 56.693"
	 xml:space="preserve">
<g>
	<g>
		<path fill="#C6C6C6" d="M111.501,56.693H77.019c-10.978,0-11.104-10.993-11.104-11.105V11.105C65.914,0.127,76.907,0,77.019,0
			h34.482c10.978,0,11.105,10.993,11.105,11.105v34.482C122.606,56.567,111.613,56.693,111.501,56.693z M77.019,0.757
			c-0.423,0-10.348,0.133-10.348,10.348v34.482c0,0.423,0.133,10.348,10.348,10.348h34.482c0.423,0,10.347-0.132,10.347-10.348
			V11.105c0-0.422-0.131-10.348-10.347-10.348H77.019z"/>
	</g>
	<g>
		<path fill="#EDEDED" d="M143.131,0c0,0-10.872,0-10.872,10.867v34.958c0,0,0,10.868,10.872,10.868h34.95
			c0,0,10.871,0,10.871-10.868V10.867c0,0,0-10.867-10.871-10.867H143.131z"/>
	</g>
	<g>
		<path fill="#E3051B" d="M10.872,0C10.872,0,0,0,0,10.867v34.959c0,0,0,10.866,10.872,10.866h34.95c0,0,10.872,0,10.872-10.866
			V10.867c0,0,0-10.867-10.872-10.867H10.872z"/>
	</g>
	<g>
		<g>
			<defs>
				<rect id="SVGID_1_" x="6.385" y="10.246" width="44.238" height="38.713"/>
			</defs>
			<clipPath id="SVGID_2_">
				<use xlink:href="#SVGID_1_"  overflow="visible"/>
			</clipPath>
			<g clip-path="url(#SVGID_2_)">
				<path fill="#FFFFFF" d="M32.237,45.77c-0.337,0.51-0.68,1.027-1.039,1.571c-0.536-0.352-1.057-0.688-1.568-1.04
					c-0.036-0.025-0.024-0.182,0.015-0.246c0.274-0.436,0.555-0.867,0.847-1.291c0.106-0.153,0.083-0.234-0.059-0.35
					c-0.361-0.3-0.713-0.612-1.053-0.936c-0.126-0.121-0.208-0.125-0.342-0.021c-0.442,0.341-0.892,0.672-1.37,1.029
					c-0.4-0.533-0.788-1.051-1.195-1.595c0.083-0.069,0.153-0.131,0.23-0.188c0.375-0.282,0.749-0.567,1.13-0.841
					c0.145-0.104,0.166-0.191,0.08-0.356c-0.214-0.417-0.413-0.842-0.595-1.273c-0.074-0.175-0.157-0.209-0.328-0.153
					c-0.473,0.151-0.949,0.289-1.426,0.43c-0.075,0.023-0.152,0.04-0.254,0.064c-0.19-0.634-0.377-1.252-0.572-1.901
					c0.376-0.117,0.726-0.227,1.078-0.333c0.25-0.076,0.5-0.155,0.753-0.222c0.149-0.041,0.203-0.12,0.181-0.273
					c-0.061-0.463-0.114-0.93-0.163-1.397c-0.018-0.172-0.109-0.224-0.269-0.23c-0.542-0.023-1.083-0.061-1.623-0.078
					c-0.208-0.007-0.284-0.074-0.264-0.292c0.044-0.485,0.072-0.973,0.088-1.458c0.007-0.21,0.063-0.283,0.288-0.263
					c0.503,0.048,1.01,0.061,1.514,0.095c0.177,0.013,0.25-0.044,0.283-0.23c0.081-0.461,0.184-0.919,0.297-1.375
					c0.042-0.168,0.002-0.244-0.152-0.309c-0.532-0.222-1.059-0.453-1.619-0.694c0.263-0.614,0.517-1.208,0.787-1.838
					c0.341,0.146,0.662,0.281,0.982,0.418c0.233,0.099,0.459,0.211,0.699,0.292c0.071,0.023,0.211-0.02,0.257-0.079
					c0.3-0.396,0.577-0.808,0.874-1.205c0.099-0.133,0.049-0.203-0.049-0.292c-0.379-0.349-0.751-0.705-1.127-1.057
					c-0.071-0.067-0.147-0.127-0.239-0.208c0.472-0.5,0.914-0.971,1.379-1.464c0.279,0.259,0.541,0.501,0.803,0.746
					c0.158,0.147,0.322,0.292,0.47,0.449c0.14,0.15,0.236,0.147,0.4,0.006c0.348-0.299,0.721-0.571,1.096-0.838
					c0.129-0.093,0.16-0.165,0.085-0.308c-0.265-0.513-0.521-1.03-0.799-1.587c0.592-0.299,1.173-0.594,1.783-0.901
					c0.252,0.499,0.493,0.971,0.731,1.444c0.177,0.351,0.173,0.346,0.561,0.242c0.383-0.102,0.769-0.2,1.157-0.279
					c0.196-0.039,0.239-0.12,0.211-0.313c-0.084-0.598-0.147-1.197-0.222-1.835c0.675-0.081,1.323-0.157,1.998-0.237
					c0.078,0.639,0.161,1.244,0.219,1.852c0.019,0.196,0.093,0.232,0.27,0.227c0.46-0.014,0.921-0.017,1.38-0.004
					c0.186,0.005,0.253-0.06,0.29-0.232c0.121-0.554,0.257-1.104,0.396-1.694c0.657,0.153,1.292,0.303,1.958,0.459
					c-0.126,0.541-0.236,1.057-0.375,1.566c-0.062,0.233-0.013,0.325,0.221,0.408c0.424,0.15,0.836,0.339,1.243,0.534
					c0.166,0.079,0.249,0.062,0.347-0.093c0.292-0.465,0.599-0.921,0.919-1.409c0.565,0.371,1.111,0.729,1.679,1.101
					c-0.323,0.494-0.62,0.967-0.937,1.425c-0.118,0.172-0.103,0.263,0.061,0.394c0.368,0.292,0.723,0.6,1.065,0.92
					c0.14,0.131,0.227,0.114,0.365,0.008c0.427-0.331,0.862-0.647,1.322-0.99c0.403,0.539,0.79,1.056,1.2,1.603
					c-0.363,0.273-0.714,0.54-1.065,0.8c-0.416,0.31-0.411,0.305-0.179,0.762c0.175,0.347,0.342,0.697,0.49,1.056
					c0.072,0.176,0.16,0.204,0.33,0.151c0.515-0.166,1.031-0.318,1.579-0.484c0.193,0.635,0.38,1.252,0.581,1.913
					c-0.224,0.069-0.434,0.135-0.646,0.201c-0.354,0.106-0.712,0.204-1.061,0.325c-0.077,0.027-0.183,0.141-0.177,0.207
					c0.042,0.493,0.117,0.984,0.166,1.478c0.018,0.186,0.103,0.238,0.276,0.245c0.505,0.018,1.01,0.055,1.515,0.076
					c0.146,0.007,0.235,0.024,0.22,0.213c-0.042,0.513-0.074,1.026-0.089,1.54c-0.006,0.206-0.082,0.265-0.279,0.249
					c-0.45-0.036-0.903-0.043-1.351-0.08c-0.2-0.016-0.258,0.047-0.289,0.242c-0.074,0.462-0.17,0.924-0.288,1.376
					c-0.056,0.211,0.011,0.291,0.19,0.363c0.467,0.19,0.927,0.394,1.416,0.602c-0.266,0.617-0.521,1.211-0.791,1.839
					c-0.483-0.208-0.951-0.392-1.404-0.607c-0.208-0.098-0.307-0.071-0.428,0.129c-0.216,0.352-0.464,0.687-0.713,1.02
					c-0.238,0.318-0.246,0.312,0.056,0.593c0.354,0.332,0.708,0.667,1.08,1.017c-0.43,0.459-0.847,0.906-1.277,1.341
					c-0.037,0.037-0.2,0.007-0.259-0.045c-0.338-0.298-0.667-0.607-0.988-0.925c-0.129-0.127-0.212-0.133-0.359-0.014
					c-0.384,0.313-0.782,0.611-1.188,0.898c-0.146,0.104-0.152,0.186-0.074,0.332c0.239,0.454,0.467,0.915,0.714,1.406
					c-0.562,0.281-1.113,0.563-1.673,0.828c-0.042,0.019-0.174-0.062-0.208-0.126c-0.226-0.422-0.431-0.854-0.659-1.275
					c-0.039-0.071-0.166-0.157-0.232-0.143c-0.553,0.124-1.1,0.271-1.693,0.424c0.071,0.624,0.143,1.265,0.221,1.95
					c-0.663,0.077-1.324,0.154-2.002,0.234c-0.067-0.588-0.137-1.133-0.188-1.678c-0.02-0.217-0.079-0.311-0.326-0.301
					c-0.468,0.018-0.938-0.003-1.405-0.024c-0.158-0.007-0.208,0.061-0.237,0.19c-0.1,0.44-0.202,0.879-0.305,1.318
					c-0.082,0.348-0.083,0.348-0.42,0.27c-0.438-0.104-0.875-0.219-1.317-0.305c-0.242-0.047-0.312-0.13-0.24-0.381
					c0.126-0.441,0.221-0.894,0.311-1.344c0.014-0.072-0.05-0.21-0.112-0.24C33.308,46.228,32.793,46.012,32.237,45.77
					 M37.589,34.848c-0.566-0.001-0.994,0.427-0.992,0.993c0.001,0.554,0.421,0.98,0.972,0.985c0.569,0.005,1.002-0.417,1.005-0.979
					C38.579,35.279,38.153,34.849,37.589,34.848"/>
			</g>
		</g>
		<g>
			<defs>
				<rect id="SVGID_3_" x="6.385" y="10.246" width="44.238" height="38.713"/>
			</defs>
			<clipPath id="SVGID_4_">
				<use xlink:href="#SVGID_3_"  overflow="visible"/>
			</clipPath>
			<g clip-path="url(#SVGID_4_)">
				<path fill="#FFFFFF" d="M17.799,24.797c-0.117-0.112-0.1-0.208,0.016-0.318c0.229-0.217,0.441-0.453,0.67-0.669
					c0.109-0.104,0.102-0.181,0.02-0.301c-0.244-0.357-0.483-0.719-0.702-1.092c-0.093-0.157-0.18-0.191-0.347-0.133
					c-0.331,0.117-0.667,0.215-1.053,0.337c-0.195-0.603-0.383-1.181-0.582-1.792c0.373-0.122,0.702-0.237,1.037-0.332
					c0.172-0.05,0.221-0.128,0.199-0.308c-0.05-0.431-0.083-0.863-0.103-1.295c-0.007-0.152-0.069-0.205-0.204-0.227
					c-0.286-0.045-0.568-0.105-0.854-0.147c-0.172-0.024-0.234-0.104-0.203-0.272c0.086-0.479,0.171-0.958,0.253-1.438
					c0.026-0.158,0.117-0.18,0.252-0.154c0.258,0.05,0.52,0.08,0.773,0.14c0.185,0.043,0.273,0,0.34-0.186
					c0.148-0.406,0.319-0.806,0.498-1.2c0.066-0.147,0.038-0.227-0.083-0.317c-0.26-0.193-0.511-0.4-0.813-0.638
					c0.376-0.5,0.741-0.986,1.129-1.502c0.285,0.218,0.539,0.401,0.778,0.601c0.143,0.118,0.236,0.126,0.388-0.009
					c0.341-0.308,0.703-0.593,1.068-0.873c0.128-0.097,0.146-0.177,0.079-0.314c-0.137-0.283-0.259-0.572-0.41-0.91
					c0.578-0.261,1.13-0.512,1.713-0.776c0.151,0.328,0.285,0.602,0.404,0.883c0.065,0.152,0.145,0.188,0.313,0.152
					c0.449-0.097,0.903-0.173,1.357-0.243c0.144-0.021,0.203-0.072,0.207-0.22c0.009-0.314,0.033-0.628,0.053-0.971
					c0.604-0.045,1.187-0.028,1.762,0.089c0.052,0.01,0.116,0.125,0.117,0.193c0.004,0.261-0.006,0.524-0.028,0.784
					c-0.013,0.139,0.012,0.209,0.162,0.251c0.444,0.121,0.879,0.268,1.323,0.385c0.071,0.019,0.207-0.04,0.25-0.104
					c0.177-0.259,0.33-0.534,0.521-0.853c0.554,0.325,1.085,0.639,1.641,0.965c-0.181,0.302-0.332,0.566-0.496,0.822
					c-0.099,0.152-0.101,0.248,0.054,0.382c0.31,0.274,0.6,0.575,0.88,0.881c0.117,0.129,0.205,0.139,0.341,0.05
					c0.264-0.171,0.537-0.331,0.872-0.537c0.308,0.522,0.613,1.028,0.902,1.542c0.021,0.037-0.051,0.158-0.109,0.197
					c-0.224,0.153-0.457,0.292-0.692,0.426c-0.136,0.077-0.155,0.16-0.103,0.31c0.143,0.407,0.271,0.822,0.385,1.239
					c0.04,0.145,0.104,0.191,0.244,0.18c0.279-0.023,0.56-0.031,0.837-0.058c0.162-0.016,0.235,0.045,0.248,0.202
					c0.042,0.495,0.083,0.989,0.128,1.483c0.014,0.155-0.056,0.203-0.203,0.208c-0.29,0.009-0.577,0.045-0.865,0.053
					c-0.186,0.003-0.244,0.085-0.268,0.257c-0.056,0.41-0.141,0.818-0.193,1.228c-0.01,0.078,0.053,0.208,0.12,0.244
					c0.271,0.143,0.559,0.251,0.833,0.391c0.066,0.034,0.153,0.157,0.137,0.205c-0.2,0.539-0.417,1.069-0.642,1.632
					c-0.372-0.164-0.689-0.292-0.995-0.44c-0.177-0.086-0.278-0.073-0.396,0.107c-0.213,0.322-0.448,0.635-0.702,0.926
					c-0.145,0.166-0.145,0.276-0.007,0.434c0.224,0.259,0.429,0.534,0.69,0.861c-0.487,0.398-0.962,0.789-1.465,1.199
					c-0.257-0.323-0.488-0.597-0.7-0.886c-0.12-0.163-0.216-0.183-0.401-0.081c-0.338,0.188-0.691,0.355-1.052,0.495
					c-0.208,0.082-0.252,0.185-0.206,0.386c0.067,0.29,0.122,0.583,0.162,0.878c0.009,0.071-0.05,0.208-0.1,0.221
					c-0.557,0.136-1.119,0.253-1.704,0.38c-0.08-0.424-0.155-0.785-0.213-1.148c-0.03-0.185-0.104-0.255-0.301-0.255
					c-0.423,0-0.848-0.018-1.271-0.053c-0.183-0.016-0.261,0.047-0.307,0.213c-0.084,0.305-0.19,0.603-0.274,0.908
					c-0.043,0.154-0.117,0.207-0.274,0.158c-0.456-0.142-0.913-0.284-1.373-0.413c-0.2-0.058-0.223-0.156-0.156-0.34
					c0.102-0.28,0.171-0.571,0.267-0.853c0.057-0.163,0.005-0.239-0.144-0.316c-0.351-0.183-0.7-0.375-1.033-0.589
					c-0.167-0.106-0.264-0.089-0.389,0.047c-0.244,0.265-0.5,0.516-0.789,0.812c-0.424-0.409-0.825-0.794-1.226-1.181L17.799,24.797
					z M24.458,20.023c0.568,0.003,0.998-0.421,1-0.986c0.001-0.556-0.416-0.985-0.965-0.993c-0.569-0.008-1.007,0.412-1.013,0.972
					C23.474,19.586,23.897,20.019,24.458,20.023"/>
			</g>
		</g>
		<g>
			<defs>
				<rect id="SVGID_5_" x="6.385" y="10.246" width="44.238" height="38.713"/>
			</defs>
			<clipPath id="SVGID_6_">
				<use xlink:href="#SVGID_5_"  overflow="visible"/>
			</clipPath>
			<g clip-path="url(#SVGID_6_)">
				<path fill="#FFFFFF" d="M17.799,24.797l-0.008-0.01c-0.134,0.324-0.261,0.653-0.407,0.972c-0.065,0.143-0.057,0.222,0.082,0.31
					c0.242,0.155,0.48,0.323,0.701,0.508c0.131,0.107,0.217,0.114,0.345,0c0.241-0.216,0.496-0.417,0.795-0.666
					c0.375,0.442,0.736,0.872,1.118,1.32c-0.293,0.247-0.55,0.471-0.817,0.681c-0.126,0.101-0.133,0.182-0.048,0.317
					c0.125,0.197,0.244,0.402,0.331,0.62c0.074,0.187,0.179,0.218,0.354,0.172c0.253-0.065,0.513-0.106,0.766-0.172
					c0.137-0.036,0.206,0.008,0.236,0.138c0.105,0.438,0.211,0.877,0.317,1.315c0.035,0.146-0.016,0.213-0.167,0.238
					c-0.249,0.042-0.495,0.105-0.742,0.154c-0.153,0.031-0.226,0.096-0.219,0.273c0.014,0.342,0.009,0.687-0.016,1.029
					c-0.013,0.18,0.059,0.239,0.212,0.274c0.246,0.056,0.495,0.112,0.732,0.195c0.072,0.025,0.172,0.152,0.16,0.212
					c-0.098,0.5-0.221,0.997-0.341,1.516c-0.355-0.092-0.652-0.163-0.945-0.248c-0.159-0.044-0.244-0.005-0.311,0.154
					c-0.111,0.267-0.242,0.525-0.384,0.775c-0.078,0.139-0.065,0.222,0.056,0.322c0.234,0.197,0.457,0.408,0.728,0.649
					c-0.379,0.435-0.748,0.859-1.132,1.3c-0.261-0.229-0.498-0.421-0.718-0.632c-0.114-0.11-0.194-0.115-0.321-0.019
					c-0.294,0.224-0.599,0.436-0.908,0.639c-0.122,0.08-0.153,0.155-0.099,0.289c0.112,0.283,0.214,0.57,0.336,0.899
					c-0.501,0.182-0.979,0.365-1.466,0.524c-0.057,0.018-0.19-0.072-0.226-0.142c-0.104-0.209-0.182-0.432-0.255-0.656
					c-0.051-0.152-0.137-0.179-0.287-0.162c-0.394,0.044-0.791,0.08-1.186,0.101c-0.152,0.008-0.231,0.049-0.25,0.209
					c-0.028,0.235-0.08,0.463-0.11,0.697c-0.019,0.141-0.074,0.215-0.227,0.19c-0.435-0.068-0.873-0.133-1.309-0.199
					c-0.176-0.027-0.208-0.124-0.17-0.29c0.052-0.22,0.071-0.446,0.111-0.668c0.027-0.148-0.011-0.225-0.167-0.279
					c-0.34-0.119-0.672-0.261-1-0.411c-0.135-0.062-0.213-0.044-0.292,0.076c-0.164,0.247-0.333,0.49-0.53,0.781
					c-0.468-0.347-0.913-0.677-1.383-1.026c0.193-0.29,0.355-0.546,0.532-0.793c0.091-0.125,0.083-0.211-0.017-0.33
					c-0.22-0.264-0.433-0.534-0.628-0.815c-0.106-0.152-0.2-0.171-0.358-0.085c-0.214,0.115-0.444,0.201-0.662,0.311
					c-0.125,0.062-0.204,0.035-0.259-0.088c-0.185-0.41-0.378-0.819-0.548-1.236c-0.024-0.061,0.039-0.206,0.102-0.242
					c0.217-0.126,0.451-0.228,0.683-0.327c0.14-0.062,0.182-0.143,0.149-0.295c-0.065-0.3-0.119-0.602-0.156-0.906
					c-0.02-0.164-0.097-0.214-0.246-0.221c-0.252-0.012-0.506-0.02-0.756-0.057c-0.073-0.011-0.189-0.119-0.188-0.18
					c0.009-0.504,0.04-1.005,0.064-1.536c0.367,0.02,0.68,0.031,0.992,0.058c0.179,0.015,0.255-0.049,0.292-0.229
					c0.06-0.291,0.143-0.578,0.236-0.86c0.048-0.149,0.025-0.235-0.12-0.303c-0.227-0.108-0.446-0.237-0.673-0.348
					c-0.138-0.067-0.198-0.146-0.113-0.295c0.217-0.384,0.431-0.771,0.645-1.157c0.071-0.13,0.16-0.146,0.289-0.071
					c0.227,0.13,0.464,0.241,0.692,0.371c0.141,0.08,0.237,0.067,0.348-0.063c0.181-0.213,0.376-0.415,0.584-0.601
					c0.141-0.127,0.169-0.226,0.05-0.386c-0.188-0.253-0.354-0.521-0.555-0.822c0.481-0.317,0.944-0.622,1.444-0.95
					c0.198,0.298,0.384,0.561,0.549,0.835c0.097,0.161,0.188,0.2,0.372,0.124c0.299-0.125,0.611-0.222,0.924-0.307
					c0.168-0.047,0.24-0.118,0.226-0.3c-0.02-0.26-0.007-0.523-0.02-0.785c-0.009-0.158,0.053-0.238,0.208-0.248
					c0.432-0.025,0.865-0.047,1.297-0.074c0.161-0.011,0.225,0.055,0.221,0.22c-0.005,0.271,0.009,0.542,0.012,0.813
					c0.001,0.134,0.042,0.215,0.197,0.234c0.312,0.04,0.624,0.097,0.934,0.153c0.145,0.027,0.236,0,0.293-0.153
					c0.094-0.254,0.215-0.496,0.314-0.749c0.062-0.155,0.143-0.209,0.308-0.138c0.422,0.183,0.848,0.355,1.272,0.53
					C17.709,24.781,17.756,24.788,17.799,24.797 M14.998,31.4c0.002-0.567-0.424-0.996-0.989-0.997c-0.555,0-0.982,0.42-0.99,0.97
					c-0.006,0.569,0.414,1.005,0.977,1.009C14.562,32.386,14.994,31.962,14.998,31.4"/>
			</g>
		</g>
	</g>
</g>
</svg>
